<?xml version="1.0" encoding="UTF-8"?>
<!DOCTYPE svg PUBLIC "-//W3C//DTD SVG 1.1//EN" "http://www.w3.org/Graphics/SVG/1.1/DTD/svg11.dtd">
<!-- Creator: CorelDRAW 2023 -->
<svg xmlns="http://www.w3.org/2000/svg" xml:space="preserve" width="34.8468mm" height="14.9479mm" version="1.1" style="shape-rendering:geometricPrecision; text-rendering:geometricPrecision; image-rendering:optimizeQuality; fill-rule:evenodd; clip-rule:evenodd"
viewBox="0 0 2331.43 1000.09"
 xmlns:xlink="http://www.w3.org/1999/xlink"
 xmlns:xodm="http://www.corel.com/coreldraw/odm/2003">
 <defs>
  <style type="text/css">
   <![CDATA[
    .fil1 {fill:#C5E8E8;fill-rule:nonzero}
    .fil0 {fill:#C5E8E8;fill-rule:nonzero;fill-opacity:0.458824}
   ]]>
  </style>
 </defs>
 <g id="Conteúdo_x0020_do_x0020_PowerClip">
  <metadata id="CorelCorpID_0Corel-Layer"/>
  <g id="_1701811192720">
   <path class="fil0" d="M2331.43 1000.09c-15.5,-6.56 -30.42,-13.55 -44.71,-20.95 -168.71,-87.13 -229.25,-209.88 -287.57,-328.47 -30.66,-62.32 -59.73,-121.2 -103.11,-174.38 -100.29,-122.27 -292,-218.18 -512.97,-256.53 -145.49,-25.4 -300.08,-27.54 -463.73,-29.68 -75.47,-0.95 -153.37,-2.02 -230.66,-5.46 -317.88,-14.42 -555.25,-78.15 -688.68,-184.62l2331.43 0 0 1000.09z"/>
   <path class="fil1" d="M2331.43 879.62c-19.88,-7.23 -38.85,-15.42 -56.66,-24.63 -193.75,-100.17 -199.07,-274.22 -311.12,-410.97 -95.59,-116.6 -277.36,-207.61 -488.25,-244.29 -195.47,-34.06 -404.14,-22.57 -607.32,-31.75 -203.18,-9.17 -422.29,-46.76 -534.67,-146.83 -7.75,-6.9 -14.82,-13.96 -21.26,-21.14l2019.27 0 0 879.62z"/>
  </g>
 </g>
</svg>
