<?xml version="1.0" encoding="UTF-8"?>
<!DOCTYPE svg PUBLIC "-//W3C//DTD SVG 1.1//EN" "http://www.w3.org/Graphics/SVG/1.1/DTD/svg11.dtd">
<!-- Creator: CorelDRAW 2023 -->
<svg xmlns="http://www.w3.org/2000/svg" xml:space="preserve" width="90.9484mm" height="68.522mm" version="1.1" style="shape-rendering:geometricPrecision; text-rendering:geometricPrecision; image-rendering:optimizeQuality; fill-rule:evenodd; clip-rule:evenodd"
viewBox="0 0 4981.84 3753.4"
 xmlns:xlink="http://www.w3.org/1999/xlink"
 xmlns:xodm="http://www.corel.com/coreldraw/odm/2003">
 <defs>
  <style type="text/css">
   <![CDATA[
    .fil0 {fill:#8FA5D3;fill-rule:nonzero}
    .fil1 {fill:#9AAED7;fill-rule:nonzero}
   ]]>
  </style>
 </defs>
 <g id="Camada_x0020_1">
  <metadata id="CorelCorpID_0Corel-Layer"/>
  <rect class="fil0" x="-0.01" y="0" width="4981.85" height="3753.4"/>
  <g id="_1702315749312">
   <path class="fil1" d="M1798.61 3152.96c65.13,-60 74.96,32.35 136.48,99.11 61.63,66.87 151.56,82.83 86.43,142.81 -65.13,60 -191.66,77.58 -253.19,10.82 -61.53,-66.87 -34.85,-192.76 30.28,-252.76l0 0.02z"/>
   <path class="fil1" d="M1612.41 3409.95c35.62,-22.29 75.51,-22.62 89.38,-0.66 13.78,21.97 -3.82,57.91 -39.34,80.2 -35.62,22.4 -75.61,22.63 -89.39,0.66 -13.87,-21.97 3.83,-57.81 39.44,-80.21l-0.1 0z"/>
   <path class="fil1" d="M1686.61 3512.13c19.67,-37.15 54.21,-57.37 77.15,-45.23 22.96,12.12 25.56,52.12 6.01,89.16 -19.56,37.14 -54.08,57.37 -77.04,45.23 -22.96,-12.12 -25.68,-52.12 -6.01,-89.16l-0.11 0z"/>
   <path class="fil1" d="M1819.48 3528.86c19.44,-37.27 53.75,-57.7 76.81,-45.67 23.06,11.91 26,51.91 6.56,89.16 -19.34,37.27 -53.75,57.7 -76.81,45.67 -23.06,-12.02 -26,-51.91 -6.56,-89.16z"/>
   <path class="fil1" d="M1612.52 3263.65c40.43,-11.36 78.77,-0.33 85.89,24.69 6.99,24.92 -20,54.52 -60.43,65.89 -40.44,11.25 -78.91,0.33 -85.9,-24.69 -7.09,-25.02 19.89,-54.52 60.43,-65.89z"/>
   <path class="fil1" d="M1188.76 3381.56c-39.34,167.19 -206.63,270.77 -373.83,231.43 -167.19,-39.34 -270.77,-206.63 -231.43,-373.93 39.34,-167.07 206.63,-270.77 373.93,-231.44 167.07,39.34 270.77,206.63 231.43,373.83l-0.1 0.1zm-156.69 -36.94c18.14,-77.25 66.33,-139.87 129.26,-178.45 -7.65,-14.42 -16.17,-28.29 -25.89,-41.41 -73.42,45.23 -129.6,118.34 -150.79,208.7 -21.3,90.36 -3.6,180.95 41.96,254.05 14.54,-7.32 28.42,-15.95 41.63,-25.45 -39.11,-62.61 -54.31,-140.09 -36.17,-217.45zm-328.04 -285.97c39.12,62.6 54.31,140.08 36.17,217.35 -18.14,77.37 -66.33,139.98 -129.26,178.55 7.54,14.42 16.17,28.29 25.79,41.3 73.42,-45.13 129.7,-118.24 150.9,-208.7 21.2,-90.26 3.6,-180.84 -42.07,-254.06 -14.54,7.43 -28.42,15.95 -41.53,25.56z"/>
   <path class="fil1" d="M1353 2008.43l-120.97 349.67c-1.42,-0.66 -2.96,-1.3 -4.49,-1.76 -33.01,-11.36 -68.73,6.23 -80.1,39.12 -11.26,32.88 6.22,68.73 39.23,79.98 27.22,9.39 56.5,-1.1 72.12,-23.72 -1.53,27.53 15.07,53.76 42.4,63.16 33.01,11.25 68.85,-6.23 80.1,-39.11 11.25,-32.89 -6.22,-68.73 -39.23,-80.1l120.97 -349.67c1.42,0.66 2.96,1.3 4.49,1.86 32.89,11.25 68.85,-6.23 80.1,-39.12 11.36,-32.88 -6.12,-68.73 -39.11,-80.1 -27.32,-9.39 -56.5,1.1 -72.22,23.72 1.53,-27.43 -15.08,-53.65 -42.4,-63.06 -33.01,-11.25 -68.73,6.22 -80.1,39.11 -11.25,32.88 6.22,68.85 39.23,80.1l-0.02 -0.09z"/>
   <path class="fil1" d="M847.4 2245.32l-223.9 -143.57 -103.47 93.86c45.36,-21.53 87.63,-32.35 121.73,-31.04 -4.03,69.71 -62.4,168.72 -157.02,254.6 -94.62,85.89 -198.77,134.41 -268.6,131.56 1.97,-33.98 16.83,-75.07 42.63,-118.11l-103.48 93.86 121.3 236.68c2.4,9.51 6.56,17.91 12.68,24.69 52.68,58.03 225.43,-13.11 386.05,-158.78 160.51,-145.66 248.04,-310.77 195.38,-368.8 -6.23,-6.79 -14.1,-11.69 -23.39,-14.98l0.09 0.03zm-223.8 206.31c4.26,15.74 -0.1,30.49 -9.84,33.22 -9.72,2.63 -21.09,-7.98 -25.36,-23.6 -4.26,-15.74 0.1,-30.59 9.84,-33.22 9.72,-2.62 21.09,7.86 25.36,23.6zm-103.37 79.44c14.42,7.65 22.19,20.97 17.47,29.95 -4.69,8.85 -20.21,9.95 -34.64,2.3 -14.31,-7.65 -22.19,-20.97 -17.47,-29.95 4.69,-8.85 20.21,-9.95 34.54,-2.3l0.1 0zm6.89 -51.46c14.31,7.76 22.07,21.2 17.27,30.05 -4.8,8.85 -20.21,9.84 -34.65,2.07 -14.31,-7.76 -22.06,-21.2 -17.27,-30.05 4.69,-8.85 20.21,-9.72 34.54,-2.07l0.1 0zm39.77 -28.52c8.52,13.87 8.52,29.39 0,34.64 -8.52,5.25 -22.4,-1.63 -30.92,-15.51 -8.52,-13.87 -8.52,-29.39 0.1,-34.64 8.52,-5.36 22.4,1.63 30.92,15.51l-0.1 0zm99.11 72.89c23.06,25.45 -12.78,28.95 -38.8,52.55 -26.12,23.6 -32.55,58.47 -55.51,33.11 -23.06,-25.46 -29.62,-74.52 -3.49,-98.14 26,-23.72 74.74,-13.01 97.8,12.45l0 0.02z"/>
   <path class="fil1" d="M623.5 2101.63c44.69,49.28 6.56,159.21 -85.13,263.02 62.73,-71.02 100.1,-144.8 103.37,-200.18 -69.72,-2.73 -173.95,45.79 -268.6,131.68 -94.62,85.9 -152.99,184.78 -157.02,254.49 59.88,2.4 145.23,-33.11 227.94,-97.47 -118.11,92.01 -241.61,125.22 -288.8,73.21 -52.55,-58.04 9.51,-200.08 138.78,-317.43 129.26,-117.25 276.79,-165.33 329.34,-107.42l0.12 0.1z"/>
   <path class="fil1" d="M213.73 2185.99c-1.76,13.88 -14.31,23.72 -28.3,22.07l-50.48 -6.23c-13.88,-1.75 -23.72,-14.31 -22.07,-28.19l6.01 -49.82c1.76,-13.87 14.31,-23.82 28.3,-22.07l50.48 6.12c13.88,1.75 23.72,14.42 22.07,28.29l-6.01 49.82z"/>
   <path class="fil1" d="M155.69 1983.84c7.32,11.81 3.83,27.43 -8.09,34.85l-43.06 26.99c-11.91,7.42 -27.53,3.82 -34.97,-8.09l-26.66 -42.5c-7.32,-11.91 -3.83,-27.43 8.09,-34.85l43.06 -26.99c11.91,-7.42 27.53,-3.82 34.85,7.99l26.66 42.62 0.12 -0.02z"/>
   <path class="fil1" d="M275.56 2086.24c-12.24,6.89 -27.65,2.53 -34.54,-9.72l-24.92 -44.36c-6.89,-12.24 -2.53,-27.65 9.72,-34.54l43.71 -24.59c12.24,-6.89 27.65,-2.52 34.54,9.72l24.8 44.36c6.89,12.24 2.53,27.65 -9.61,34.42l-43.71 24.59 0.02 0.12z"/>
   <path class="fil1" d="M2320.73 2606.25l-240.62 -271.87c-15.3,-17.27 -41.86,-18.9 -59.11,-3.6l-190.79 168.83c-17.27,15.3 -18.9,41.85 -3.49,59.11l70.05 79.11 -264.88 234.39c-22.19,19.57 -24.26,53.44 -4.59,75.61l29.51 33.32c19.67,22.19 53.54,24.26 75.61,4.59l264.77 -234.39 70.05 79.11c15.3,17.38 41.73,19.01 59.11,3.6l190.79 -168.83c17.27,-15.3 18.9,-41.86 3.6,-59.11l-0.02 0.13z"/>
   <path class="fil1" d="M2101.09 2358.1l-18.9 -21.3 64.13 -56.81c5.9,-5.25 14.87,-4.69 20.11,1.2 5.25,5.89 4.69,14.87 -1.21,20.1l-64.13 56.81z"/>
   <path class="fil1" d="M2132.11 2393.29l-18.9 -21.3 64.13 -56.81c5.9,-5.25 14.87,-4.7 20.1,1.2 5.25,5.89 4.7,14.87 -1.2,20.1l-64.13 56.81z"/>
   <path class="fil1" d="M2163.26 2428.36l-18.9 -21.3 64.13 -56.81c5.9,-5.25 14.87,-4.69 20.1,1.2 5.25,5.89 4.7,14.87 -1.2,20.1l-64.13 56.81z"/>
   <path class="fil1" d="M2194.3 2463.44l-18.8 -21.3 64.13 -56.81c5.9,-5.25 14.87,-4.69 20.11,1.2 5.25,5.89 4.69,14.87 -1.2,20.1l-64.14 56.81 -0.1 0z"/>
   <path class="fil1" d="M2225.33 2498.62l-18.9 -21.31 64.13 -56.81c5.9,-5.25 14.87,-4.69 20.1,1.2 5.25,5.9 4.7,14.87 -1.2,20.11l-64.13 56.81z"/>
   <path class="fil1" d="M2256.47 2533.7l-18.9 -21.3 64.13 -56.81c5.9,-5.25 14.87,-4.69 20.1,1.2 5.25,5.89 4.7,14.87 -1.2,20.1l-64.13 56.81z"/>
   <path class="fil1" d="M2287.5 2568.77l-18.9 -21.3 64.13 -56.81c5.9,-5.25 14.87,-4.7 20.1,1.2 5.25,5.89 4.7,14.87 -1.2,20.1l-64.13 56.81z"/>
   <path class="fil1" d="M2318.64 2603.97l-18.9 -21.31 64.13 -56.81c5.9,-5.25 14.87,-4.69 20.1,1.2 5.25,5.9 4.7,14.87 -1.2,20.11l-64.13 56.81z"/>
   <path class="fil1" d="M1817.41 2708.1l-185.66 164.24c-22.19,19.57 -24.26,53.45 -4.59,75.61l29.51 33.32c19.67,22.19 53.55,24.26 75.62,4.6l185.54 -164.24 -100.54 -113.65 0.12 0.12z"/>
   <path class="fil1" d="M2748.95 3111.53l-120.97 349.67c-1.42,-0.77 -2.83,-1.3 -4.49,-1.76 -33.01,-11.36 -68.73,6.12 -80.1,39.11 -11.25,33.01 6.23,68.73 39.11,80.1 27.22,9.39 56.5,-1.1 72.12,-23.72 -1.53,27.53 15.08,53.75 42.4,63.16 33.01,11.25 68.85,-6.23 80.1,-39.11 11.26,-32.89 -6.22,-68.73 -39.23,-80.11l120.97 -349.67c1.53,0.66 2.96,1.3 4.49,1.86 32.89,11.25 68.85,-6.22 80.1,-39.11 11.36,-32.88 -6.12,-68.73 -39.11,-80.1 -27.32,-9.39 -56.5,1.1 -72.22,23.72 1.42,-27.42 -15.07,-53.65 -42.4,-63.06 -33.01,-11.25 -68.73,6.23 -80.1,39.12 -11.25,32.88 6.22,68.72 39.11,80.1l0.22 -0.21z"/>
   <path class="fil1" d="M3083.77 2696.07c-14.64,87.3 -79,20.44 -168.6,5.36 -89.6,-15.07 -170.57,27.43 -155.82,-59.88 14.64,-87.3 103.8,-178.77 193.42,-163.69 89.6,15.07 145.77,130.92 131.02,218.21l-0.02 0z"/>
   <path class="fil1" d="M3073.39 2378.87c-14.41,39.44 -45.79,64.14 -70.26,55.29 -24.36,-8.96 -32.45,-48.09 -18.03,-87.53 14.42,-39.44 45.79,-64.26 70.26,-55.29 24.36,8.85 32.45,48.08 18.03,87.53z"/>
   <path class="fil1" d="M2952.21 2343.67c7.22,41.41 -7.65,78.57 -33.21,83.04 -25.56,4.49 -52.12,-25.46 -59.44,-66.76 -7.32,-41.41 7.65,-78.57 33.11,-83.04 25.56,-4.49 52.22,25.46 59.44,66.76l0.1 0z"/>
   <path class="fil1" d="M2837.04 2411.98c7.42,41.41 -7.1,78.57 -32.68,83.16 -25.56,4.59 -52.34,-25.13 -59.88,-66.43 -7.55,-41.3 7.1,-78.57 32.68,-83.16 25.56,-4.59 52.34,25.02 59.88,66.43z"/>
   <path class="fil1" d="M3162.99 2494.59c-25.02,33.78 -62.07,48.52 -83.04,33.11 -20.86,-15.41 -17.6,-55.41 7.43,-89.06 25.03,-33.65 62.17,-48.52 82.94,-33.11 20.97,15.51 17.7,55.29 -7.32,89.06z"/>
   <path class="fil1" d="M4152.68 2267.95c-39.34,167.19 -206.63,270.77 -373.83,231.43 -167.19,-39.34 -270.77,-206.63 -231.43,-373.93 39.34,-167.07 206.63,-270.77 373.93,-231.44 167.07,39.34 270.77,206.63 231.44,373.83l-0.1 0.1zm-156.71 -36.83c18.14,-77.25 66.33,-139.87 129.27,-178.45 -7.65,-14.42 -16.18,-28.29 -25.89,-41.41 -73.43,45.23 -129.6,118.34 -150.79,208.7 -21.3,90.36 -3.6,180.95 41.96,254.05 14.54,-7.32 28.41,-15.95 41.63,-25.45 -39.11,-62.61 -54.31,-140.09 -36.17,-217.45zm-328.04 -285.96c39.11,62.61 54.31,140.08 36.17,217.35 -18.14,77.37 -66.33,139.98 -129.27,178.55 7.55,14.42 16.18,28.29 25.79,41.3 73.43,-45.13 129.7,-118.24 150.9,-208.7 21.3,-90.26 3.6,-180.84 -42.07,-254.06 -14.54,7.43 -28.29,16.07 -41.53,25.56z"/>
   <path class="fil1" d="M3913.8 3462.41l50.49 -261.15 -125.56 -61.31c36.71,34.21 62.5,69.39 73.98,101.63 -66.32,22.07 -179.87,4.49 -294.59,-51.58 -114.74,-56.05 -198.44,-134.84 -221.71,-200.73 32.35,-10.82 75.95,-12.12 125.56,-4.16l-125.56 -61.3 -174.95 200.3c-7.98,5.79 -14.21,12.68 -18.25,20.97 -34.41,70.38 95.62,204.56 290.44,299.74 194.82,95.18 380.59,115.28 415.03,44.92 4.03,-8.32 5.57,-17.48 5.25,-27.32l-0.13 -0.02zm-274.49 -131.46c-13.01,9.84 -28.41,11.25 -34.54,3.17 -6.01,-7.98 -0.43,-22.5 12.57,-32.24 13.01,-9.84 28.42,-11.25 34.54,-3.17 6.12,8.09 0.43,22.5 -12.58,32.24zm-112.01 -66.54c-1.75,16.18 -11.25,28.42 -21.3,27.32 -10.05,-1.1 -16.71,-15.07 -14.97,-31.25 1.75,-16.18 11.36,-28.42 21.3,-27.32 10.05,1.1 16.71,15.08 14.97,31.25zm50.28 -12.68c-1.86,16.18 -11.48,28.29 -21.53,27.22 -10.05,-1.2 -16.61,-15.18 -14.75,-31.36 1.86,-16.17 11.48,-28.29 21.53,-27.09 9.95,1.2 16.61,15.18 14.75,31.35l0 -0.12zm41.2 26.44c-9.72,13.11 -24.16,18.9 -32.24,12.78 -8.09,-6.01 -6.78,-21.42 2.95,-34.54 9.72,-13.01 24.16,-18.8 32.24,-12.78 8.09,6.01 6.79,21.42 -2.95,34.54zm-31.04 119c-15.08,30.82 -31.58,-1.1 -63.27,-16.61 -31.58,-15.41 -66.43,-8.52 -51.35,-39.34 15.07,-30.82 58.24,-55.08 89.82,-39.57 31.58,15.41 39.77,64.69 24.7,95.51l0.1 0z"/>
   <path class="fil1" d="M3964.29 3201.36c-29.18,59.77 -145.44,65.12 -275.92,18.36 89.17,31.91 171.66,39.34 224.23,21.86 -23.26,-65.79 -106.98,-144.67 -221.71,-200.74 -114.75,-56.05 -228.37,-73.65 -294.6,-51.58 20,56.5 84.47,122.6 175.05,175.61 -129.16,-75.72 -205.87,-178.01 -175.05,-241.05 34.42,-70.38 189.37,-65.35 346.28,11.36 156.81,76.71 256.13,195.82 221.71,266.18z"/>
   <path class="fil1" d="M3734.27 2851.91c-13.55,3.49 -27.43,-4.59 -31.04,-18.03l-12.89 -49.18c-3.6,-13.55 4.49,-27.32 18.03,-30.92l48.52 -12.78c13.55,-3.49 27.43,4.49 30.92,18.03l13.01 49.18c3.49,13.44 -4.59,27.42 -18.14,30.92l-48.52 12.78 0.1 0z"/>
   <path class="fil1" d="M3900.46 2723.08c-8.19,11.25 -24.03,13.77 -35.41,5.46l-40.97 -30.05c-11.25,-8.32 -13.78,-24.16 -5.46,-35.41l29.61 -40.44c8.32,-11.25 24.16,-13.65 35.41,-5.46l40.97 30.05c11.36,8.31 13.78,24.15 5.46,35.4l-29.72 40.54 0.1 -0.1z"/>
   <path class="fil1" d="M3849.77 2872.45c-10.92,-8.85 -12.58,-24.8 -3.72,-35.62l31.91 -39.56c8.75,-10.92 24.8,-12.58 35.62,-3.83l39.01 31.58c10.92,8.85 12.58,24.8 3.83,35.62l-32.02 39.44c-8.75,10.92 -24.69,12.58 -35.62,3.83l-39.01 -31.48 0 0.02z"/>
   <path class="fil1" d="M4833.66 2280.96l-269.69 -253.4c1.2,-1.1 2.4,-2.07 3.49,-3.29 23.83,-25.45 22.5,-65.35 -2.96,-89.06 -25.46,-23.72 -65.23,-22.4 -89.06,3.06 -19.67,20.97 -22.07,52.02 -7.86,75.61 -24.47,-12.68 -55.29,-8.19 -74.95,12.89 -23.72,25.46 -22.4,65.35 2.95,89.16 25.46,23.72 65.35,22.4 89.06,-3.06l269.69 253.29c-1.2,1.1 -2.4,2.07 -3.49,3.39 -23.72,25.46 -22.4,65.35 2.95,89.06 25.36,23.82 65.23,22.5 89.06,-2.96 19.77,-21.09 22.07,-52.02 7.86,-75.61 24.47,12.57 55.18,8.09 74.85,-12.89 23.72,-25.46 22.4,-65.23 -2.96,-89.06 -25.46,-23.72 -65.35,-22.5 -89.06,3.06l0.1 -0.21z"/>
   <path class="fil1" d="M4663.53 2792.35l-329.01 153.19c-20.97,9.72 -30.06,34.64 -20.33,55.61l107.53 231c9.72,20.97 34.74,30.05 55.61,20.21l95.72 -44.59 149.27 320.61c12.45,26.76 44.36,38.47 71.14,26l40.43 -18.8c26.89,-12.45 38.47,-44.36 26,-71.25l-149.27 -320.61 95.72 -44.59c20.97,-9.72 30.05,-34.64 20.33,-55.61l-107.53 -231c-9.72,-20.97 -34.74,-30.05 -55.74,-20.21l0.12 0.03z"/>
   <path class="fil1" d="M4363.14 2932.22l-25.79 12.02 -36.17 -77.7c-3.29,-7.09 -0.22,-15.63 6.89,-18.9 7.09,-3.29 15.63,-0.22 18.9,6.89l36.17 77.7z"/>
   <path class="fil1" d="M4405.65 2912.44l-25.79 12.02 -36.17 -77.7c-3.29,-7.09 -0.23,-15.63 6.89,-18.9 7.09,-3.39 15.63,-0.33 18.9,6.89l36.17 77.7z"/>
   <path class="fil1" d="M4448.25 2892.55l-25.79 12.02 -36.17 -77.7c-3.29,-7.09 -0.22,-15.63 6.89,-18.9 7.22,-3.29 15.63,-0.22 18.9,6.89l36.17 77.7z"/>
   <path class="fil1" d="M4490.65 2872.88l-25.79 12.02 -36.17 -77.71c-3.29,-7.09 -0.22,-15.63 6.89,-18.9 7.1,-3.39 15.64,-0.22 18.9,6.89l36.17 77.7z"/>
   <path class="fil1" d="M4533.27 2853.01l-25.79 12.02 -36.17 -77.7c-3.29,-7.1 -0.23,-15.51 6.89,-18.9 7.09,-3.39 15.63,-0.23 18.9,6.89l36.17 77.7z"/>
   <path class="fil1" d="M4575.78 2833.21l-25.79 12.02 -36.17 -77.7c-3.29,-7.1 -0.22,-15.51 6.89,-18.9 7.22,-3.29 15.63,-0.23 18.9,6.89l36.17 77.7z"/>
   <path class="fil1" d="M4618.28 2813.44l-25.79 12.02 -36.17 -77.7c-3.29,-7.09 -0.22,-15.63 6.89,-18.9 7.1,-3.29 15.63,-0.22 18.9,6.89l36.17 77.7z"/>
   <path class="fil1" d="M4660.68 2793.67l-25.79 12.02 -36.17 -77.7c-3.29,-7.09 -0.22,-15.51 6.89,-18.9 7.1,-3.39 15.64,-0.22 18.91,6.89l36.17 77.7z"/>
   <path class="fil1" d="M4617.85 3303.75l104.69 224.67c12.45,26.76 44.36,38.47 71.14,26l40.44 -18.8c26.88,-12.45 38.46,-44.36 26,-71.25l-104.69 -224.67 -137.58 64.03 0 0.02z"/>
   <path class="fil1" d="M1798.61 1399.22c65.13,-60 74.96,32.35 136.48,99.11 61.63,66.87 151.56,82.83 86.43,142.81 -65.13,60 -191.66,77.58 -253.19,10.82 -61.53,-66.87 -34.85,-192.76 30.28,-252.76l0 0.02z"/>
   <path class="fil1" d="M1612.41 1656.24c35.62,-22.29 75.51,-22.63 89.38,-0.66 13.78,21.97 -3.82,57.91 -39.34,80.2 -35.62,22.4 -75.61,22.63 -89.39,0.66 -13.87,-21.97 3.83,-57.81 39.44,-80.2l-0.1 0z"/>
   <path class="fil1" d="M1686.61 1758.31c19.67,-37.15 54.21,-57.37 77.15,-45.23 22.96,12.12 25.56,52.12 6.01,89.16 -19.56,37.15 -54.08,57.37 -77.04,45.23 -22.96,-12.12 -25.68,-52.12 -6.01,-89.16l-0.11 0z"/>
   <path class="fil1" d="M1819.48 1775.02c19.44,-37.27 53.75,-57.7 76.81,-45.67 23.06,11.91 26,51.91 6.56,89.16 -19.34,37.27 -53.75,57.7 -76.81,45.67 -23.06,-12.02 -26,-51.91 -6.56,-89.16z"/>
   <path class="fil1" d="M1612.52 1509.81c40.43,-11.36 78.77,-0.33 85.89,24.69 6.99,24.92 -20,54.52 -60.43,65.9 -40.44,11.25 -78.91,0.33 -85.9,-24.7 -7.09,-25.02 19.89,-54.52 60.43,-65.89z"/>
   <path class="fil1" d="M1188.76 1627.72c-39.34,167.19 -206.63,270.77 -373.83,231.44 -167.19,-39.34 -270.77,-206.64 -231.43,-373.93 39.34,-167.07 206.63,-270.77 373.93,-231.44 167.07,39.34 270.77,206.64 231.43,373.83l-0.1 0.1zm-156.69 -36.94c18.14,-77.25 66.33,-139.87 129.26,-178.45 -7.65,-14.42 -16.17,-28.29 -25.89,-41.41 -73.42,45.23 -129.6,118.34 -150.79,208.7 -21.3,90.36 -3.6,180.95 41.96,254.06 14.54,-7.32 28.42,-15.95 41.63,-25.46 -39.11,-62.61 -54.31,-140.08 -36.17,-217.45zm-328.04 -285.96c39.12,62.61 54.31,140.09 36.17,217.35 -18.14,77.37 -66.33,139.98 -129.26,178.55 7.54,14.42 16.17,28.29 25.79,41.3 73.42,-45.12 129.7,-118.24 150.9,-208.7 21.2,-90.26 3.6,-180.84 -42.07,-254.05 -14.54,7.42 -28.42,15.95 -41.53,25.56z"/>
   <path class="fil1" d="M1353 254.6l-120.97 349.67c-1.42,-0.66 -2.96,-1.3 -4.49,-1.75 -33.01,-11.36 -68.73,6.22 -80.1,39.11 -11.26,32.88 6.22,68.73 39.23,79.98 27.22,9.39 56.5,-1.1 72.12,-23.72 -1.53,27.53 15.07,53.76 42.4,63.16 33.01,11.25 68.85,-6.22 80.1,-39.11 11.25,-32.88 -6.22,-68.73 -39.23,-80.1l120.97 -349.67c1.42,0.66 2.96,1.3 4.49,1.86 32.89,11.25 68.85,-6.23 80.1,-39.11 11.36,-32.89 -6.12,-68.73 -39.11,-80.11 -27.32,-9.39 -56.5,1.1 -72.22,23.72 1.53,-27.43 -15.08,-53.65 -42.4,-63.06 -33.01,-11.25 -68.73,6.23 -80.1,39.11 -11.25,32.89 6.22,68.85 39.23,80.1l-0.02 -0.09z"/>
   <path class="fil1" d="M847.4 491.51l-223.9 -143.57 -103.47 93.85c45.36,-21.53 87.63,-32.35 121.73,-31.04 -4.03,69.72 -62.4,168.72 -157.02,254.6 -94.62,85.9 -198.77,134.41 -268.6,131.56 1.97,-33.98 16.83,-75.08 42.63,-118.12l-103.48 93.86 121.3 236.68c2.4,9.51 6.56,17.91 12.68,24.69 52.68,58.04 225.43,-13.11 386.05,-158.78 160.51,-145.66 248.04,-310.77 195.38,-368.8 -6.23,-6.78 -14.1,-11.68 -23.39,-14.97l0.09 0.03zm-223.8 206.31c4.26,15.74 -0.1,30.48 -9.84,33.22 -9.72,2.62 -21.09,-7.99 -25.36,-23.6 -4.26,-15.74 0.1,-30.59 9.84,-33.22 9.72,-2.62 21.09,7.86 25.36,23.6zm-103.37 79.44c14.42,7.65 22.19,20.97 17.47,29.95 -4.69,8.85 -20.21,9.95 -34.64,2.3 -14.31,-7.65 -22.19,-20.97 -17.47,-29.95 4.69,-8.85 20.21,-9.95 34.54,-2.3l0.1 0zm6.89 -51.46c14.31,7.76 22.07,21.2 17.27,30.05 -4.8,8.85 -20.21,9.84 -34.65,2.07 -14.31,-7.76 -22.06,-21.2 -17.27,-30.05 4.69,-8.85 20.21,-9.72 34.54,-2.07l0.1 0zm39.77 -28.52c8.52,13.88 8.52,29.39 0,34.64 -8.52,5.25 -22.4,-1.63 -30.92,-15.51 -8.52,-13.88 -8.52,-29.39 0.1,-34.65 8.52,-5.36 22.4,1.64 30.92,15.51l-0.1 0zm99.11 72.89c23.06,25.46 -12.78,28.95 -38.8,52.55 -26.12,23.6 -32.55,58.47 -55.51,33.11 -23.06,-25.46 -29.62,-74.52 -3.49,-98.13 26,-23.72 74.74,-13.01 97.8,12.45l0 0.02z"/>
   <path class="fil1" d="M623.5 347.91c44.69,49.29 6.56,159.21 -85.13,263.02 62.73,-71.02 100.1,-144.79 103.37,-200.18 -69.72,-2.73 -173.95,45.79 -268.6,131.68 -94.62,85.89 -152.99,184.77 -157.02,254.49 59.88,2.4 145.23,-33.11 227.94,-97.47 -118.11,92.01 -241.61,125.23 -288.8,73.21 -52.55,-58.03 9.51,-200.08 138.78,-317.43 129.26,-117.24 276.79,-165.33 329.34,-107.42l0.12 0.1z"/>
   <path class="fil1" d="M213.73 432.17c-1.76,13.88 -14.31,23.72 -28.3,22.07l-50.48 -6.22c-13.88,-1.76 -23.72,-14.31 -22.07,-28.19l6.01 -49.82c1.76,-13.87 14.31,-23.82 28.3,-22.06l50.48 6.12c13.88,1.76 23.72,14.42 22.07,28.3l-6.01 49.82z"/>
   <path class="fil1" d="M155.69 230.01c7.32,11.81 3.83,27.43 -8.09,34.85l-43.06 26.99c-11.91,7.42 -27.53,3.82 -34.97,-8.09l-26.66 -42.51c-7.32,-11.91 -3.83,-27.42 8.09,-34.85l43.06 -26.99c11.91,-7.43 27.53,-3.83 34.85,7.98l26.66 42.62 0.12 -0.02z"/>
   <path class="fil1" d="M275.56 332.51c-12.24,6.89 -27.65,2.52 -34.54,-9.72l-24.92 -44.36c-6.89,-12.24 -2.53,-27.65 9.72,-34.54l43.71 -24.59c12.24,-6.89 27.65,-2.53 34.54,9.72l24.8 44.36c6.89,12.24 2.53,27.65 -9.61,34.42l-43.71 24.59 0.02 0.13z"/>
   <path class="fil1" d="M2320.73 852.43l-240.62 -271.87c-15.3,-17.27 -41.86,-18.9 -59.11,-3.6l-190.79 168.83c-17.27,15.3 -18.9,41.86 -3.49,59.11l70.05 79.11 -264.88 234.39c-22.19,19.57 -24.26,53.45 -4.59,75.62l29.51 33.32c19.67,22.19 53.54,24.26 75.61,4.59l264.77 -234.39 70.05 79.11c15.3,17.37 41.73,19.01 59.11,3.6l190.79 -168.83c17.27,-15.3 18.9,-41.86 3.6,-59.11l-0.02 0.12z"/>
   <path class="fil1" d="M2101.09 604.27l-18.9 -21.3 64.13 -56.81c5.9,-5.25 14.87,-4.69 20.11,1.2 5.25,5.89 4.69,14.87 -1.21,20.1l-64.13 56.81z"/>
   <path class="fil1" d="M2132.11 639.47l-18.9 -21.3 64.13 -56.81c5.9,-5.25 14.87,-4.69 20.1,1.2 5.25,5.89 4.7,14.87 -1.2,20.1l-64.13 56.81z"/>
   <path class="fil1" d="M2163.26 674.55l-18.9 -21.3 64.13 -56.81c5.9,-5.25 14.87,-4.7 20.1,1.2 5.25,5.89 4.7,14.87 -1.2,20.1l-64.13 56.81z"/>
   <path class="fil1" d="M2194.3 709.62l-18.8 -21.3 64.13 -56.81c5.9,-5.25 14.87,-4.69 20.11,1.2 5.25,5.89 4.69,14.87 -1.2,20.1l-64.14 56.81 -0.1 0z"/>
   <path class="fil1" d="M2225.33 744.8l-18.9 -21.3 64.13 -56.81c5.9,-5.25 14.87,-4.69 20.1,1.2 5.25,5.89 4.7,14.87 -1.2,20.1l-64.13 56.81z"/>
   <path class="fil1" d="M2256.47 779.88l-18.9 -21.31 64.13 -56.81c5.9,-5.25 14.87,-4.69 20.1,1.2 5.25,5.9 4.7,14.87 -1.2,20.1l-64.13 56.82z"/>
   <path class="fil1" d="M2287.5 814.95l-18.9 -21.3 64.13 -56.81c5.9,-5.25 14.87,-4.69 20.1,1.2 5.25,5.89 4.7,14.87 -1.2,20.1l-64.13 56.81z"/>
   <path class="fil1" d="M2318.64 850.14l-18.9 -21.3 64.13 -56.81c5.9,-5.25 14.87,-4.7 20.1,1.2 5.25,5.89 4.7,14.87 -1.2,20.1l-64.13 56.81z"/>
   <path class="fil1" d="M1817.41 954.27l-185.66 164.24c-22.19,19.56 -24.26,53.44 -4.59,75.61l29.51 33.32c19.67,22.19 53.55,24.26 75.62,4.59l185.54 -164.24 -100.54 -113.65 0.12 0.13z"/>
   <path class="fil1" d="M2748.95 1357.71l-120.97 349.67c-1.42,-0.77 -2.83,-1.3 -4.49,-1.76 -33.01,-11.36 -68.73,6.12 -80.1,39.12 -11.25,33 6.23,68.72 39.11,80.1 27.22,9.39 56.5,-1.1 72.12,-23.72 -1.53,27.53 15.08,53.76 42.4,63.16 33.01,11.25 68.85,-6.22 80.1,-39.11 11.26,-32.89 -6.22,-68.73 -39.23,-80.1l120.97 -349.67c1.53,0.66 2.96,1.3 4.49,1.86 32.89,11.25 68.85,-6.23 80.1,-39.12 11.36,-32.88 -6.12,-68.72 -39.11,-80.1 -27.32,-9.39 -56.5,1.1 -72.22,23.72 1.42,-27.43 -15.07,-53.65 -42.4,-63.06 -33.01,-11.25 -68.73,6.22 -80.1,39.11 -11.25,32.89 6.22,68.73 39.11,80.1l0.22 -0.21z"/>
   <path class="fil1" d="M3083.77 942.26c-14.64,87.3 -79,20.43 -168.6,5.36 -89.6,-15.08 -170.57,27.42 -155.82,-59.88 14.64,-87.3 103.8,-178.77 193.42,-163.7 89.6,15.08 145.77,130.92 131.02,218.22l-0.02 0z"/>
   <path class="fil1" d="M3073.39 625.03c-14.41,39.44 -45.79,64.14 -70.26,55.29 -24.36,-8.96 -32.45,-48.09 -18.03,-87.53 14.42,-39.44 45.79,-64.26 70.26,-55.29 24.36,8.85 32.45,48.09 18.03,87.53z"/>
   <path class="fil1" d="M2952.21 589.85c7.22,41.41 -7.65,78.57 -33.21,83.04 -25.56,4.49 -52.12,-25.46 -59.44,-66.76 -7.32,-41.41 7.65,-78.57 33.11,-83.04 25.56,-4.49 52.22,25.46 59.44,66.76l0.1 0z"/>
   <path class="fil1" d="M2837.04 658.15c7.42,41.41 -7.1,78.57 -32.68,83.16 -25.56,4.59 -52.34,-25.13 -59.88,-66.43 -7.55,-41.3 7.1,-78.57 32.68,-83.16 25.56,-4.59 52.34,25.03 59.88,66.43z"/>
   <path class="fil1" d="M3162.99 740.75c-25.02,33.78 -62.07,48.52 -83.04,33.11 -20.86,-15.41 -17.6,-55.41 7.43,-89.06 25.03,-33.65 62.17,-48.52 82.94,-33.11 20.97,15.51 17.7,55.29 -7.32,89.06z"/>
   <path class="fil1" d="M4152.68 514.24c-39.34,167.19 -206.63,270.77 -373.83,231.44 -167.19,-39.34 -270.77,-206.63 -231.43,-373.93 39.34,-167.07 206.63,-270.77 373.93,-231.43 167.07,39.34 270.77,206.63 231.44,373.82l-0.1 0.1zm-156.71 -36.83c18.14,-77.25 66.33,-139.87 129.27,-178.45 -7.65,-14.42 -16.18,-28.29 -25.89,-41.41 -73.43,45.23 -129.6,118.34 -150.79,208.7 -21.3,90.36 -3.6,180.95 41.96,254.06 14.54,-7.32 28.41,-15.95 41.63,-25.46 -39.11,-62.6 -54.31,-140.08 -36.17,-217.45zm-328.04 -285.97c39.11,62.61 54.31,140.09 36.17,217.35 -18.14,77.37 -66.33,139.98 -129.27,178.55 7.55,14.42 16.18,28.29 25.79,41.3 73.43,-45.12 129.7,-118.24 150.9,-208.7 21.3,-90.26 3.6,-180.84 -42.07,-254.05 -14.54,7.42 -28.29,16.07 -41.53,25.56z"/>
   <path class="fil1" d="M3913.8 1708.59l50.49 -261.15 -125.56 -61.3c36.71,34.21 62.5,69.39 73.98,101.63 -66.32,22.07 -179.87,4.49 -294.59,-51.58 -114.74,-56.05 -198.44,-134.85 -221.71,-200.74 32.35,-10.82 75.95,-12.12 125.56,-4.16l-125.56 -61.3 -174.95 200.3c-7.98,5.8 -14.21,12.68 -18.25,20.97 -34.41,70.38 95.62,204.57 290.44,299.74 194.82,95.18 380.59,115.28 415.03,44.92 4.03,-8.32 5.57,-17.48 5.25,-27.32l-0.13 -0.02zm-274.49 -131.45c-13.01,9.84 -28.41,11.25 -34.54,3.17 -6.01,-7.99 -0.43,-22.51 12.57,-32.25 13.01,-9.84 28.42,-11.25 34.54,-3.16 6.12,8.09 0.43,22.5 -12.58,32.24zm-112.01 -66.55c-1.75,16.17 -11.25,28.41 -21.3,27.32 -10.05,-1.1 -16.71,-15.07 -14.97,-31.25 1.75,-16.17 11.36,-28.41 21.3,-27.32 10.05,1.1 16.71,15.07 14.97,31.25zm50.28 -12.68c-1.86,16.18 -11.48,28.3 -21.53,27.22 -10.05,-1.2 -16.61,-15.18 -14.75,-31.35 1.86,-16.18 11.48,-28.3 21.53,-27.1 9.95,1.2 16.61,15.18 14.75,31.35l0 -0.12zm41.2 26.45c-9.72,13.11 -24.16,18.9 -32.24,12.78 -8.09,-6.02 -6.78,-21.43 2.95,-34.54 9.72,-13 24.16,-18.8 32.24,-12.78 8.09,6.01 6.79,21.42 -2.95,34.54zm-31.04 119c-15.08,30.82 -31.58,-1.1 -63.27,-16.61 -31.58,-15.4 -66.43,-8.52 -51.35,-39.34 15.07,-30.82 58.24,-55.08 89.82,-39.57 31.58,15.41 39.77,64.7 24.7,95.51l0.1 0z"/>
   <path class="fil1" d="M3964.29 1447.54c-29.18,59.77 -145.44,65.13 -275.92,18.37 89.17,31.91 171.66,39.34 224.23,21.86 -23.26,-65.79 -106.98,-144.67 -221.71,-200.74 -114.75,-56.05 -228.37,-73.65 -294.6,-51.58 20,56.5 84.47,122.6 175.05,175.61 -129.16,-75.72 -205.87,-178.01 -175.05,-241.05 34.42,-70.38 189.37,-65.35 346.28,11.36 156.81,76.71 256.13,195.82 221.71,266.18z"/>
   <path class="fil1" d="M3734.27 1098.07c-13.55,3.49 -27.43,-4.59 -31.04,-18.03l-12.89 -49.18c-3.6,-13.55 4.49,-27.32 18.03,-30.92l48.52 -12.78c13.55,-3.49 27.43,4.49 30.92,18.03l13.01 49.18c3.49,13.44 -4.59,27.43 -18.14,30.92l-48.52 12.78 0.1 0z"/>
   <path class="fil1" d="M3900.46 969.24c-8.19,11.25 -24.03,13.78 -35.41,5.46l-40.97 -30.05c-11.25,-8.32 -13.78,-24.16 -5.46,-35.41l29.61 -40.43c8.32,-11.26 24.16,-13.66 35.41,-5.46l40.97 30.05c11.36,8.31 13.78,24.16 5.46,35.41l-29.72 40.53 0.1 -0.1z"/>
   <path class="fil1" d="M3849.77 1118.63c-10.92,-8.85 -12.58,-24.8 -3.72,-35.62l31.91 -39.57c8.75,-10.92 24.8,-12.57 35.62,-3.82l39.01 31.58c10.92,8.85 12.58,24.8 3.83,35.62l-32.02 39.44c-8.75,10.92 -24.69,12.57 -35.62,3.82l-39.01 -31.47 0 0.02z"/>
   <path class="fil1" d="M4833.66 527.13l-269.69 -253.4c1.2,-1.1 2.4,-2.07 3.49,-3.29 23.83,-25.46 22.5,-65.35 -2.96,-89.06 -25.46,-23.72 -65.23,-22.4 -89.06,3.06 -19.67,20.97 -22.07,52.02 -7.86,75.61 -24.47,-12.68 -55.29,-8.19 -74.95,12.89 -23.72,25.46 -22.4,65.35 2.95,89.16 25.46,23.72 65.35,22.4 89.06,-3.06l269.69 253.29c-1.2,1.1 -2.4,2.07 -3.49,3.4 -23.72,25.45 -22.4,65.35 2.95,89.06 25.36,23.82 65.23,22.5 89.06,-2.96 19.77,-21.09 22.07,-52.02 7.86,-75.61 24.47,12.57 55.18,8.09 74.85,-12.89 23.72,-25.46 22.4,-65.23 -2.96,-89.06 -25.46,-23.72 -65.35,-22.5 -89.06,3.06l0.1 -0.21z"/>
   <path class="fil1" d="M4663.53 1038.53l-329.01 153.19c-20.97,9.72 -30.06,34.65 -20.33,55.62l107.53 231c9.72,20.97 34.74,30.05 55.61,20.21l95.72 -44.59 149.27 320.61c12.45,26.76 44.36,38.47 71.14,26l40.43 -18.8c26.89,-12.45 38.47,-44.36 26,-71.25l-149.27 -320.61 95.72 -44.59c20.97,-9.72 30.05,-34.64 20.33,-55.61l-107.53 -231c-9.72,-20.97 -34.74,-30.05 -55.74,-20.21l0.12 0.04z"/>
   <path class="fil1" d="M4363.14 1178.4l-25.79 12.01 -36.17 -77.7c-3.29,-7.09 -0.22,-15.63 6.89,-18.9 7.09,-3.29 15.63,-0.22 18.9,6.89l36.17 77.7z"/>
   <path class="fil1" d="M4405.65 1158.61l-25.79 12.01 -36.17 -77.7c-3.29,-7.09 -0.23,-15.63 6.89,-18.9 7.09,-3.39 15.63,-0.33 18.9,6.89l36.17 77.7z"/>
   <path class="fil1" d="M4448.25 1138.84l-25.79 12.02 -36.17 -77.7c-3.29,-7.1 -0.22,-15.64 6.89,-18.9 7.22,-3.29 15.63,-0.23 18.9,6.89l36.17 77.7z"/>
   <path class="fil1" d="M4490.65 1119.06l-25.79 12.02 -36.17 -77.7c-3.29,-7.09 -0.22,-15.63 6.89,-18.9 7.1,-3.39 15.64,-0.22 18.9,6.89l36.17 77.7z"/>
   <path class="fil1" d="M4533.27 1099.17l-25.79 12.02 -36.17 -77.7c-3.29,-7.09 -0.23,-15.51 6.89,-18.9 7.09,-3.39 15.63,-0.22 18.9,6.89l36.17 77.7z"/>
   <path class="fil1" d="M4575.78 1079.39l-25.79 12.02 -36.17 -77.7c-3.29,-7.09 -0.22,-15.51 6.89,-18.9 7.22,-3.29 15.63,-0.22 18.9,6.89l36.17 77.7z"/>
   <path class="fil1" d="M4618.28 1059.6l-25.79 12.02 -36.17 -77.7c-3.29,-7.09 -0.22,-15.63 6.89,-18.9 7.1,-3.29 15.63,-0.22 18.9,6.89l36.17 77.7z"/>
   <path class="fil1" d="M4660.68 1039.83l-25.79 12.01 -36.17 -77.7c-3.29,-7.09 -0.22,-15.51 6.89,-18.9 7.1,-3.39 15.64,-0.22 18.91,6.89l36.17 77.7z"/>
   <path class="fil1" d="M4617.85 1549.91l104.69 224.67c12.45,26.76 44.36,38.46 71.14,26l40.44 -18.8c26.88,-12.45 38.46,-44.36 26,-71.25l-104.69 -224.67 -137.58 64.03 0 0.02z"/>
  </g>
 </g>
</svg>
