<?xml version="1.0" encoding="UTF-8"?>
<!DOCTYPE svg PUBLIC "-//W3C//DTD SVG 1.1//EN" "http://www.w3.org/Graphics/SVG/1.1/DTD/svg11.dtd">
<!-- Creator: CorelDRAW 2023 -->
<svg xmlns="http://www.w3.org/2000/svg" xml:space="preserve" width="15.9981mm" height="9.6794mm" version="1.1" style="shape-rendering:geometricPrecision; text-rendering:geometricPrecision; image-rendering:optimizeQuality; fill-rule:evenodd; clip-rule:evenodd"
viewBox="0 0 209.68 126.86"
 xmlns:xlink="http://www.w3.org/1999/xlink"
 xmlns:xodm="http://www.corel.com/coreldraw/odm/2003">
 <defs>
  <style type="text/css">
   <![CDATA[
    .fil0 {fill:#FFC951;fill-rule:nonzero}
   ]]>
  </style>
 </defs>
 <g id="Conteúdo_x0020_do_x0020_PowerClip">
  <metadata id="CorelCorpID_0Corel-Layer"/>
  <path class="fil0" d="M-0 126.86c5.25,-1.99 10.37,-4.09 15.36,-6.3 32.17,-2.77 62.45,-11.87 85.53,-25.34 12.35,-7.21 22.25,-15.6 29.91,-24.77 7.87,-9.42 13.74,-19.34 20.55,-29.03 6.72,-9.57 14.5,-19.11 26.07,-27.01 8.94,-6.1 20.01,-10.93 32.25,-14.41l-7.45 0c-11.86,3.88 -22.33,9.04 -30.77,15.4 -10.77,8.11 -18.13,17.49 -24.7,26.96 -6.7,9.65 -12.62,19.51 -20.73,28.8 -8.11,9.28 -18.72,17.63 -31.77,24.71 -20.22,10.96 -45.5,18.57 -72.39,21.71 16.28,-7.7 30.96,-16.58 43.56,-26.37 17.28,-6.11 31.46,-15.41 42.92,-24.94 16.06,-13.37 27.49,-28.33 40.99,-42.58 7.82,-8.25 16.53,-16.46 27.05,-23.68l-4.58 0c-11.05,7.88 -20.11,16.78 -28.35,25.74 -13.23,14.38 -24.81,29.34 -41.41,42.54 -9.02,7.17 -19.64,13.92 -31.95,19.19 9.58,-7.96 17.82,-16.47 24.44,-25.42 15.88,-21.41 26.4,-47.35 54.55,-62.05l-149.08 0 0 126.86z"/>
 </g>
</svg>
